<svg width="20" height="20" viewBox="0 0 20 20" fill="none" xmlns="http://www.w3.org/2000/svg">
<path d="M11.6667 14.1667H16.6667M14.1667 11.6667V16.6667M3.33337 4.16666C3.33337 3.94565 3.42117 3.73369 3.57745 3.57741C3.73373 3.42113 3.94569 3.33333 4.16671 3.33333H7.50004C7.72105 3.33333 7.93302 3.42113 8.0893 3.57741C8.24558 3.73369 8.33337 3.94565 8.33337 4.16666V7.49999C8.33337 7.72101 8.24558 7.93297 8.0893 8.08925C7.93302 8.24553 7.72105 8.33333 7.50004 8.33333H4.16671C3.94569 8.33333 3.73373 8.24553 3.57745 8.08925C3.42117 7.93297 3.33337 7.72101 3.33337 7.49999V4.16666ZM11.6667 4.16666C11.6667 3.94565 11.7545 3.73369 11.9108 3.57741C12.0671 3.42113 12.279 3.33333 12.5 3.33333H15.8334C16.0544 3.33333 16.2663 3.42113 16.4226 3.57741C16.5789 3.73369 16.6667 3.94565 16.6667 4.16666V7.49999C16.6667 7.72101 16.5789 7.93297 16.4226 8.08925C16.2663 8.24553 16.0544 8.33333 15.8334 8.33333H12.5C12.279 8.33333 12.0671 8.24553 11.9108 8.08925C11.7545 7.93297 11.6667 7.72101 11.6667 7.49999V4.16666ZM3.33337 12.5C3.33337 12.279 3.42117 12.067 3.57745 11.9107C3.73373 11.7545 3.94569 11.6667 4.16671 11.6667H7.50004C7.72105 11.6667 7.93302 11.7545 8.0893 11.9107C8.24558 12.067 8.33337 12.279 8.33337 12.5V15.8333C8.33337 16.0543 8.24558 16.2663 8.0893 16.4226C7.93302 16.5789 7.72105 16.6667 7.50004 16.6667H4.16671C3.94569 16.6667 3.73373 16.5789 3.57745 16.4226C3.42117 16.2663 3.33337 16.0543 3.33337 15.8333V12.5Z" stroke="#222222" stroke-width="1.5" stroke-linecap="round" stroke-linejoin="round"/>
</svg>
