<svg width="20" height="20" viewBox="0 0 20 20" fill="none" xmlns="http://www.w3.org/2000/svg">
<path d="M13.8466 11.6033C14.1105 10.9701 14.2141 10.2815 14.148 9.59871C14.082 8.91588 13.8483 8.25993 13.4678 7.68909C13.0874 7.11824 12.5718 6.65018 11.967 6.32644C11.3622 6.00271 10.6868 5.83332 10.0007 5.83332C9.31471 5.83332 8.63931 6.00271 8.03448 6.32644C7.42964 6.65018 6.9141 7.11824 6.53363 7.68909C6.15315 8.25993 5.9195 8.91588 5.85343 9.59871C5.78737 10.2815 5.89092 10.9701 6.1549 11.6033M16.9224 12.8909C17.3974 11.7512 17.5836 10.5118 17.4646 9.28278C17.3455 8.05379 16.9249 6.8732 16.24 5.84581C15.5551 4.81842 14.6272 3.97602 13.5385 3.39338C12.4499 2.81074 11.2343 2.50589 9.99951 2.50589C8.76477 2.50589 7.54912 2.81074 6.46049 3.39338C5.37185 3.97602 4.44391 4.81842 3.75902 5.84581C3.07414 6.8732 2.6535 8.05379 2.53445 9.28278C2.41541 10.5118 2.60163 11.7512 3.0766 12.8909M7.49992 17.5L9.99992 9.99999L12.4999 17.5M8.33325 15.8333H11.6666M9.16659 9.99999C9.16659 10.221 9.25438 10.433 9.41066 10.5892C9.56694 10.7455 9.77891 10.8333 9.99992 10.8333C10.2209 10.8333 10.4329 10.7455 10.5892 10.5892C10.7455 10.433 10.8333 10.221 10.8333 9.99999C10.8333 9.77898 10.7455 9.56701 10.5892 9.41073C10.4329 9.25445 10.2209 9.16666 9.99992 9.16666C9.77891 9.16666 9.56694 9.25445 9.41066 9.41073C9.25438 9.56701 9.16659 9.77898 9.16659 9.99999Z" stroke="#222222" stroke-width="1.5" stroke-linecap="round" stroke-linejoin="round"/>
</svg>
