<svg width="20" height="20" viewBox="0 0 20 20" fill="none" xmlns="http://www.w3.org/2000/svg">
<path d="M1.66675 4.16667H3.75008L5.11008 8.2475C5.44192 9.24324 6.0787 10.1093 6.93018 10.723C7.78166 11.3366 8.80467 11.6668 9.85425 11.6667H12.0834C13.299 11.6667 14.4648 11.1838 15.3243 10.3242C16.1839 9.4647 16.6667 8.29891 16.6667 7.08333C16.6667 5.86776 16.1839 4.70197 15.3243 3.84243C14.4648 2.98289 13.299 2.5 12.0834 2.5H11.6667V7.5M5.00008 7.5H16.6667M7.50008 14.1667L8.33341 11.6667M13.3334 11.6667L14.1667 14.1667M5.00008 15.8333C5.00008 16.2754 5.17568 16.6993 5.48824 17.0118C5.8008 17.3244 6.22472 17.5 6.66675 17.5C7.10878 17.5 7.5327 17.3244 7.84526 17.0118C8.15782 16.6993 8.33341 16.2754 8.33341 15.8333C8.33341 15.3913 8.15782 14.9674 7.84526 14.6548C7.5327 14.3423 7.10878 14.1667 6.66675 14.1667C6.22472 14.1667 5.8008 14.3423 5.48824 14.6548C5.17568 14.9674 5.00008 15.3913 5.00008 15.8333ZM13.3334 15.8333C13.3334 16.2754 13.509 16.6993 13.8216 17.0118C14.1341 17.3244 14.5581 17.5 15.0001 17.5C15.4421 17.5 15.866 17.3244 16.1786 17.0118C16.4912 16.6993 16.6667 16.2754 16.6667 15.8333C16.6667 15.3913 16.4912 14.9674 16.1786 14.6548C15.866 14.3423 15.4421 14.1667 15.0001 14.1667C14.5581 14.1667 14.1341 14.3423 13.8216 14.6548C13.509 14.9674 13.3334 15.3913 13.3334 15.8333Z" stroke="#222222" stroke-width="1.5" stroke-linecap="round" stroke-linejoin="round"/>
</svg>
