<svg width="20" height="20" viewBox="0 0 20 20" fill="none" xmlns="http://www.w3.org/2000/svg">
<path d="M12.5 15C12.5 15.442 12.6756 15.866 12.9881 16.1785C13.3007 16.4911 13.7246 16.6667 14.1666 16.6667C14.6087 16.6667 15.0326 16.4911 15.3451 16.1785C15.6577 15.866 15.8333 15.442 15.8333 15C15.8333 14.558 15.6577 14.1341 15.3451 13.8215C15.0326 13.5089 14.6087 13.3333 14.1666 13.3333C13.7246 13.3333 13.3007 13.5089 12.9881 13.8215C12.6756 14.1341 12.5 14.558 12.5 15ZM12.5 15H5.83329M12.5 11.6667L13.3333 13.3333M7.49996 11.6667L4.99996 16.6667M12.5 4.16668V3.33334M9.99996 4.16668V3.33334M7.49996 4.16668V3.33334M15.8333 6.66668H4.16663C4.16663 7.99276 4.69341 9.26453 5.63109 10.2022C6.56877 11.1399 7.84054 11.6667 9.16663 11.6667H10.8333C12.1275 11.6676 13.3717 11.1666 14.3042 10.2691C15.2366 9.37161 15.7848 8.14749 15.8333 6.85418V6.66668Z" stroke="#222222" stroke-width="1.5" stroke-linecap="round" stroke-linejoin="round"/>
</svg>
