<svg width="20" height="20" viewBox="0 0 20 20" fill="none" xmlns="http://www.w3.org/2000/svg">
<path d="M2.5 5.83334V15M2.5 11.6667H17.5M17.5 15V8.33334C17.5 7.89132 17.3244 7.46739 17.0118 7.15483C16.6993 6.84227 16.2754 6.66668 15.8333 6.66668H9.16667V11.6667M5 8.33334C5 8.55436 5.0878 8.76632 5.24408 8.9226C5.40036 9.07888 5.61232 9.16668 5.83333 9.16668C6.05435 9.16668 6.26631 9.07888 6.42259 8.9226C6.57887 8.76632 6.66667 8.55436 6.66667 8.33334C6.66667 8.11233 6.57887 7.90037 6.42259 7.74409C6.26631 7.58781 6.05435 7.50001 5.83333 7.50001C5.61232 7.50001 5.40036 7.58781 5.24408 7.74409C5.0878 7.90037 5 8.11233 5 8.33334Z" stroke="#222222" stroke-width="1.5" stroke-linecap="round" stroke-linejoin="round"/>
</svg>
