<svg width="20" height="20" viewBox="0 0 20 20" fill="none" xmlns="http://www.w3.org/2000/svg">
<path d="M3.33329 14.1667C3.33329 14.6087 3.50889 15.0326 3.82145 15.3452C4.13401 15.6577 4.55793 15.8333 4.99996 15.8333C5.44199 15.8333 5.86591 15.6577 6.17847 15.3452C6.49103 15.0326 6.66663 14.6087 6.66663 14.1667M3.33329 14.1667C3.33329 13.7246 3.50889 13.3007 3.82145 12.9881C4.13401 12.6756 4.55793 12.5 4.99996 12.5C5.44199 12.5 5.86591 12.6756 6.17847 12.9881C6.49103 13.3007 6.66663 13.7246 6.66663 14.1667M3.33329 14.1667H1.66663V4.99999C1.66663 4.77898 1.75442 4.56701 1.9107 4.41073C2.06698 4.25445 2.27895 4.16666 2.49996 4.16666H14.1666C15.2717 4.16666 16.3315 4.78124 17.1129 5.8752C17.8943 6.96916 18.3333 8.45289 18.3333 9.99999M6.66663 14.1667H13.3333M13.3333 14.1667C13.3333 14.6087 13.5089 15.0326 13.8214 15.3452C14.134 15.6577 14.5579 15.8333 15 15.8333C15.442 15.8333 15.8659 15.6577 16.1785 15.3452C16.491 15.0326 16.6666 14.6087 16.6666 14.1667M13.3333 14.1667C13.3333 13.7246 13.5089 13.3007 13.8214 12.9881C14.134 12.6756 14.5579 12.5 15 12.5C15.442 12.5 15.8659 12.6756 16.1785 12.9881C16.491 13.3007 16.6666 13.7246 16.6666 14.1667M16.6666 14.1667H18.3333V9.99999M18.3333 9.99999H14.5833L13.3333 4.16666M1.66663 8.33332H14.1666M5.83329 4.16666V8.33332M9.99996 4.16666V8.33332" stroke="#222222" stroke-width="1.5" stroke-linecap="round" stroke-linejoin="round"/>
</svg>
