<svg width="20" height="20" viewBox="0 0 20 20" fill="none" xmlns="http://www.w3.org/2000/svg">
<path d="M2.5 17.5L4.58333 15.4167M15.4167 4.58333L17.5 2.5M8.33333 9.16667L6.66667 10.8333M10.8333 11.6667L9.16667 13.3333M5.83333 10L10 14.1667L8.75 15.4167C8.47805 15.6976 8.15292 15.9216 7.79354 16.0756C7.43416 16.2296 7.04773 16.3106 6.65676 16.3137C6.26578 16.3169 5.87808 16.2422 5.51625 16.0941C5.15442 15.9459 4.8257 15.7272 4.54923 15.4508C4.27276 15.1743 4.05407 14.8456 3.90591 14.4837C3.75776 14.1219 3.68309 13.7342 3.68626 13.3432C3.68944 12.9523 3.77039 12.5658 3.9244 12.2065C4.07841 11.8471 4.30241 11.5219 4.58333 11.25L5.83333 10ZM14.1667 10L10 5.83333L11.25 4.58333C11.5219 4.30241 11.8471 4.07841 12.2065 3.9244C12.5658 3.77039 12.9523 3.68944 13.3432 3.68626C13.7342 3.68309 14.1219 3.75776 14.4837 3.90591C14.8456 4.05407 15.1743 4.27276 15.4508 4.54923C15.7272 4.8257 15.9459 5.15442 16.0941 5.51625C16.2422 5.87808 16.3169 6.26578 16.3137 6.65676C16.3106 7.04773 16.2296 7.43416 16.0756 7.79354C15.9216 8.15292 15.6976 8.47805 15.4167 8.75L14.1667 10Z" stroke="#222222" stroke-width="1.5" stroke-linecap="round" stroke-linejoin="round"/>
</svg>
