<svg width="20" height="20" viewBox="0 0 20 20" fill="none" xmlns="http://www.w3.org/2000/svg">
<path d="M13.3334 6.66668V5.00001C13.3334 4.55798 13.1578 4.13406 12.8452 3.8215C12.5327 3.50894 12.1087 3.33334 11.6667 3.33334H5.00004C4.55801 3.33334 4.13409 3.50894 3.82153 3.8215C3.50897 4.13406 3.33337 4.55798 3.33337 5.00001V11.6667C3.33337 12.1087 3.50897 12.5326 3.82153 12.8452C4.13409 13.1577 4.55801 13.3333 5.00004 13.3333H6.66671M6.66671 8.33334C6.66671 7.89132 6.8423 7.46739 7.15486 7.15483C7.46742 6.84227 7.89135 6.66668 8.33337 6.66668H15C15.4421 6.66668 15.866 6.84227 16.1786 7.15483C16.4911 7.46739 16.6667 7.89132 16.6667 8.33334V15C16.6667 15.442 16.4911 15.866 16.1786 16.1785C15.866 16.4911 15.4421 16.6667 15 16.6667H8.33337C7.89135 16.6667 7.46742 16.4911 7.15486 16.1785C6.8423 15.866 6.66671 15.442 6.66671 15V8.33334Z" stroke="#222222" stroke-width="1.5" stroke-linecap="round" stroke-linejoin="round"/>
</svg>
