<svg width="20" height="20" viewBox="0 0 20 20" fill="none" xmlns="http://www.w3.org/2000/svg">
<path d="M5.00004 14.1667C5.44207 14.1667 5.86599 14.3423 6.17855 14.6548C6.49111 14.9674 6.66671 15.3913 6.66671 15.8333C6.66671 16.2754 6.49111 16.6993 6.17855 17.0118C5.86599 17.3244 5.44207 17.5 5.00004 17.5C4.55801 17.5 4.13409 17.3244 3.82153 17.0118C3.50897 16.6993 3.33337 16.2754 3.33337 15.8333C3.33337 15.3913 3.50897 14.9674 3.82153 14.6548C4.13409 14.3423 4.55801 14.1667 5.00004 14.1667ZM5.00004 14.1667H14.1667M5.00004 14.1667V2.5H3.33337M14.1667 14.1667C14.6087 14.1667 15.0327 14.3423 15.3452 14.6548C15.6578 14.9674 15.8334 15.3913 15.8334 15.8333C15.8334 16.2754 15.6578 16.6993 15.3452 17.0118C15.0327 17.3244 14.6087 17.5 14.1667 17.5C13.7247 17.5 13.3008 17.3244 12.9882 17.0118C12.6756 16.6993 12.5 16.2754 12.5 15.8333C12.5 15.3913 12.6756 14.9674 12.9882 14.6548C13.3008 14.3423 13.7247 14.1667 14.1667 14.1667ZM16.6667 5L15.8334 10.8333H5.00004M8.33337 8.33333L13.3334 3.33333M8.33337 3.75C8.33337 3.86051 8.37727 3.96649 8.45541 4.04463C8.53355 4.12277 8.63953 4.16667 8.75004 4.16667C8.86055 4.16667 8.96653 4.12277 9.04467 4.04463C9.12281 3.96649 9.16671 3.86051 9.16671 3.75C9.16671 3.63949 9.12281 3.53351 9.04467 3.45537C8.96653 3.37723 8.86055 3.33333 8.75004 3.33333C8.63953 3.33333 8.53355 3.37723 8.45541 3.45537C8.37727 3.53351 8.33337 3.63949 8.33337 3.75ZM12.5 7.91667C12.5 8.02717 12.5439 8.13315 12.6221 8.21129C12.7002 8.28943 12.8062 8.33333 12.9167 8.33333C13.0272 8.33333 13.1332 8.28943 13.2113 8.21129C13.2895 8.13315 13.3334 8.02717 13.3334 7.91667C13.3334 7.80616 13.2895 7.70018 13.2113 7.62204C13.1332 7.5439 13.0272 7.5 12.9167 7.5C12.8062 7.5 12.7002 7.5439 12.6221 7.62204C12.5439 7.70018 12.5 7.80616 12.5 7.91667Z" stroke="#222222" stroke-width="1.5" stroke-linecap="round" stroke-linejoin="round"/>
</svg>
