<svg width="20" height="20" viewBox="0 0 20 20" fill="none" xmlns="http://www.w3.org/2000/svg">
<path d="M9.99992 15.8333H13.7499C14.5235 15.8333 15.2653 15.526 15.8123 14.9791C16.3593 14.4321 16.6666 13.6902 16.6666 12.9167C16.6666 12.1431 16.3593 11.4013 15.8123 10.8543C15.2653 10.3073 14.5235 10 13.7499 10H7.08325C6.3097 10 5.56784 9.69271 5.02086 9.14573C4.47388 8.59875 4.16659 7.85688 4.16659 7.08333C4.16659 6.30979 4.47388 5.56792 5.02086 5.02094C5.56784 4.47396 6.3097 4.16667 7.08325 4.16667H9.99992M3.33325 15.8333C3.33325 16.2754 3.50885 16.6993 3.82141 17.0118C4.13397 17.3244 4.55789 17.5 4.99992 17.5C5.44195 17.5 5.86587 17.3244 6.17843 17.0118C6.49099 16.6993 6.66659 16.2754 6.66659 15.8333C6.66659 15.3913 6.49099 14.9674 6.17843 14.6548C5.86587 14.3423 5.44195 14.1667 4.99992 14.1667C4.55789 14.1667 4.13397 14.3423 3.82141 14.6548C3.50885 14.9674 3.33325 15.3913 3.33325 15.8333ZM13.3333 4.16667C13.3333 4.60869 13.5088 5.03262 13.8214 5.34518C14.134 5.65774 14.5579 5.83333 14.9999 5.83333C15.4419 5.83333 15.8659 5.65774 16.1784 5.34518C16.491 5.03262 16.6666 4.60869 16.6666 4.16667C16.6666 3.72464 16.491 3.30072 16.1784 2.98816C15.8659 2.67559 15.4419 2.5 14.9999 2.5C14.5579 2.5 14.134 2.67559 13.8214 2.98816C13.5088 3.30072 13.3333 3.72464 13.3333 4.16667Z" stroke="#222222" stroke-width="1.5" stroke-linecap="round" stroke-linejoin="round"/>
</svg>
