<svg width="20" height="20" viewBox="0 0 20 20" fill="none" xmlns="http://www.w3.org/2000/svg">
<path d="M4.16667 13.3333C4.60869 13.3333 5.03262 13.5089 5.34518 13.8215C5.65774 14.134 5.83333 14.558 5.83333 15C5.83333 15.442 5.65774 15.866 5.34518 16.1785C5.03262 16.4911 4.60869 16.6667 4.16667 16.6667C3.72464 16.6667 3.30072 16.4911 2.98816 16.1785C2.67559 15.866 2.5 15.442 2.5 15C2.5 14.558 2.67559 14.134 2.98816 13.8215C3.30072 13.5089 3.72464 13.3333 4.16667 13.3333ZM4.16667 13.3333V9.16667C4.16667 8.0616 4.60565 7.00179 5.38706 6.22039C6.16846 5.43899 7.22826 5 8.33333 5H10.8333M15.8333 6.66667C15.3913 6.66667 14.9674 6.49107 14.6548 6.17851C14.3423 5.86595 14.1667 5.44203 14.1667 5C14.1667 4.55797 14.3423 4.13405 14.6548 3.82149C14.9674 3.50893 15.3913 3.33333 15.8333 3.33333C16.2754 3.33333 16.6993 3.50893 17.0118 3.82149C17.3244 4.13405 17.5 4.55797 17.5 5C17.5 5.44203 17.3244 5.86595 17.0118 6.17851C16.6993 6.49107 16.2754 6.66667 15.8333 6.66667ZM15.8333 6.66667V10.8333C15.8333 11.9384 15.3943 12.9982 14.6129 13.7796C13.8315 14.561 12.7717 15 11.6667 15H9.16667M9.16667 15L11.6667 12.5M9.16667 15L11.6667 17.5M10.8333 5L8.33333 2.5M10.8333 5L8.33333 7.5" stroke="#222222" stroke-width="1.5" stroke-linecap="round" stroke-linejoin="round"/>
</svg>
