<svg width="20" height="20" viewBox="0 0 20 20" fill="none" xmlns="http://www.w3.org/2000/svg">
<path d="M9.16663 17.5H5.83329C5.39127 17.5 4.96734 17.3244 4.65478 17.0118C4.34222 16.6993 4.16663 16.2754 4.16663 15.8333V10.8333C4.16663 10.3913 4.34222 9.96738 4.65478 9.65482C4.96734 9.34226 5.39127 9.16667 5.83329 9.16667H13.3333V5.83333C13.3333 4.94928 12.9821 4.10143 12.357 3.47631C11.7319 2.85119 10.884 2.5 9.99996 2.5C9.1159 2.5 8.26806 2.85119 7.64294 3.47631C7.01782 4.10143 6.66663 4.94928 6.66663 5.83333V9.16667M14.8333 17.3475L13.0233 18.2958C12.9696 18.3238 12.9091 18.3363 12.8488 18.3319C12.7884 18.3275 12.7304 18.3064 12.6813 18.2709C12.6322 18.2355 12.5939 18.1871 12.5707 18.1312C12.5475 18.0752 12.5403 18.014 12.55 17.9542L12.8958 15.945L11.4316 14.5225C11.3879 14.4803 11.357 14.4266 11.3423 14.3676C11.3277 14.3086 11.3299 14.2467 11.3488 14.1889C11.3676 14.1311 11.4023 14.0798 11.449 14.0408C11.4956 14.0018 11.5522 13.9767 11.6125 13.9683L13.6358 13.675L14.5408 11.8475C14.5679 11.7931 14.6096 11.7473 14.6612 11.7153C14.7129 11.6832 14.7725 11.6663 14.8333 11.6663C14.8941 11.6663 14.9537 11.6832 15.0053 11.7153C15.057 11.7473 15.0987 11.7931 15.1258 11.8475L16.0308 13.675L18.0541 13.9683C18.1142 13.977 18.1706 14.0022 18.217 14.0413C18.2634 14.0803 18.298 14.1315 18.3168 14.1892C18.3356 14.2469 18.3379 14.3086 18.3235 14.3675C18.309 14.4264 18.2783 14.4801 18.235 14.5225L16.7708 15.945L17.1158 17.9533C17.1261 18.0132 17.1195 18.0748 17.0966 18.1311C17.0737 18.1874 17.0355 18.2362 16.9863 18.2718C16.9371 18.3075 16.8788 18.3287 16.8182 18.3329C16.7576 18.3372 16.697 18.3243 16.6433 18.2958L14.8333 17.3475Z" stroke="#222222" stroke-width="1.5" stroke-linecap="round" stroke-linejoin="round"/>
</svg>
