<svg width="20" height="20" viewBox="0 0 20 20" fill="none" xmlns="http://www.w3.org/2000/svg">
<path d="M8.82083 8.82248C8.50832 9.1351 8.3328 9.55907 8.33288 10.0011C8.33295 10.4431 8.50863 10.867 8.82125 11.1796C9.13388 11.4921 9.55784 11.6676 9.99988 11.6675C10.4419 11.6674 10.8658 11.4918 11.1783 11.1791M13.9008 13.8942C12.7319 14.6256 11.3789 15.0091 10 15C7 15 4.5 13.3334 2.5 10C3.56 8.23336 4.76 6.93503 6.1 6.10503M8.48333 5.15002C8.98253 5.04897 9.49068 4.99871 10 5.00002C13 5.00002 15.5 6.66669 17.5 10C16.945 10.925 16.3508 11.7225 15.7183 12.3917M2.5 2.5L17.5 17.5" stroke="#222222" stroke-width="1.5" stroke-linecap="round" stroke-linejoin="round"/>
</svg>
