<svg width="20" height="20" viewBox="0 0 20 20" fill="none" xmlns="http://www.w3.org/2000/svg">
<path d="M3.33337 6.66668V5.00001C3.33337 4.55798 3.50897 4.13406 3.82153 3.8215C4.13409 3.50894 4.55801 3.33334 5.00004 3.33334H6.66671M3.33337 13.3333V15C3.33337 15.442 3.50897 15.866 3.82153 16.1785C4.13409 16.4911 4.55801 16.6667 5.00004 16.6667H6.66671M13.3334 3.33334H15C15.4421 3.33334 15.866 3.50894 16.1786 3.8215C16.4911 4.13406 16.6667 4.55798 16.6667 5.00001V6.66668M13.3334 16.6667H15C15.4421 16.6667 15.866 16.4911 16.1786 16.1785C16.4911 15.866 16.6667 15.442 16.6667 15V13.3333M7.50004 8.33334H7.50837M12.5 8.33334H12.5084M7.91671 12.5C8.18827 12.7772 8.51241 12.9974 8.87015 13.1477C9.22788 13.298 9.61201 13.3754 10 13.3754C10.3881 13.3754 10.7722 13.298 11.1299 13.1477C11.4877 12.9974 11.8118 12.7772 12.0834 12.5" stroke="#222222" stroke-width="1.5" stroke-linecap="round" stroke-linejoin="round"/>
</svg>
