<svg width="20" height="20" viewBox="0 0 20 20" fill="none" xmlns="http://www.w3.org/2000/svg">
<path d="M10 13.3333V13.3417M10 10.8333C10.3748 10.8345 10.739 10.7092 11.0339 10.4779C11.3287 10.2465 11.537 9.9225 11.625 9.55819C11.7131 9.19388 11.6758 8.81054 11.5191 8.47005C11.3625 8.12957 11.0956 7.85182 10.7617 7.68167C10.4301 7.51184 10.0509 7.45919 9.68567 7.53227C9.32043 7.60535 8.99066 7.79986 8.75 8.08417M16.5625 5.22506C17.1458 5.55673 17.5042 6.17756 17.5 6.84839V12.9184C17.5 13.5926 17.1308 14.2142 16.535 14.5417L10.91 18.1001C10.6311 18.2532 10.3181 18.3334 10 18.3334C9.68186 18.3334 9.36887 18.2532 9.09 18.1001L3.465 14.5417C3.17347 14.3824 2.9301 14.1477 2.76034 13.8621C2.59058 13.5766 2.50067 13.2506 2.5 12.9184V6.84756C2.5 6.17339 2.86917 5.55256 3.465 5.22506L9.09 1.90839C9.37711 1.75009 9.69964 1.66707 10.0275 1.66707C10.3554 1.66707 10.6779 1.75009 10.965 1.90839L16.59 5.22506H16.5625Z" stroke="#222222" stroke-width="1.5" stroke-linecap="round" stroke-linejoin="round"/>
</svg>
