<svg width="20" height="20" viewBox="0 0 20 20" fill="none" xmlns="http://www.w3.org/2000/svg">
<path d="M10 6.66668V17.5M10 6.66668C9.69856 5.42451 9.17954 4.36252 8.51061 3.61927C7.84169 2.87602 7.0539 2.48596 6.25 2.49997C5.69747 2.49997 5.16756 2.71946 4.77686 3.11016C4.38616 3.50086 4.16667 4.03077 4.16667 4.5833C4.16667 5.13584 4.38616 5.66574 4.77686 6.05644C5.16756 6.44714 5.69747 6.66663 6.25 6.66663M10 6.66668C10.3014 5.42451 10.8205 4.36252 11.4894 3.61927C12.1583 2.87602 12.9461 2.48596 13.75 2.49997C14.3025 2.49997 14.8324 2.71946 15.2231 3.11016C15.6138 3.50086 15.8333 4.03077 15.8333 4.5833C15.8333 5.13584 15.6138 5.66574 15.2231 6.05644C14.8324 6.44714 14.3025 6.66663 13.75 6.66663M15.8333 10V15.8333C15.8333 16.2754 15.6577 16.6993 15.3452 17.0119C15.0326 17.3244 14.6087 17.5 14.1667 17.5H5.83333C5.39131 17.5 4.96738 17.3244 4.65482 17.0119C4.34226 16.6993 4.16667 16.2754 4.16667 15.8333V10M2.5 7.50001C2.5 7.279 2.5878 7.06704 2.74408 6.91075C2.90036 6.75447 3.11232 6.66668 3.33333 6.66668H16.6667C16.8877 6.66668 17.0996 6.75447 17.2559 6.91075C17.4122 7.06704 17.5 7.279 17.5 7.50001V9.16668C17.5 9.38769 17.4122 9.59965 17.2559 9.75593C17.0996 9.91221 16.8877 10 16.6667 10H3.33333C3.11232 10 2.90036 9.91221 2.74408 9.75593C2.5878 9.59965 2.5 9.38769 2.5 9.16668V7.50001Z" stroke="#222222" stroke-width="1.5" stroke-linecap="round" stroke-linejoin="round"/>
</svg>
