<svg width="20" height="20" viewBox="0 0 20 20" fill="none" xmlns="http://www.w3.org/2000/svg">
<path d="M10 14.1667V14.175M10 11.25C9.98466 10.9795 10.0576 10.7113 10.2079 10.4859C10.3582 10.2604 10.5777 10.0899 10.8333 10C11.1466 9.88023 11.4277 9.68937 11.6546 9.44247C11.8816 9.19557 12.0481 8.89936 12.1411 8.57717C12.2341 8.25497 12.2511 7.91559 12.1906 7.58573C12.1302 7.25588 11.994 6.94455 11.7928 6.67627C11.5916 6.40799 11.3308 6.19008 11.0311 6.03969C10.7313 5.8893 10.4008 5.81054 10.0654 5.80961C9.73009 5.80868 9.3991 5.88561 9.09854 6.03433C8.79797 6.18306 8.53603 6.39952 8.33333 6.66668M2.5 10C2.5 10.9849 2.69399 11.9602 3.0709 12.8701C3.44781 13.7801 4.00026 14.6069 4.6967 15.3033C5.39314 15.9997 6.21993 16.5522 7.12987 16.9291C8.03982 17.306 9.01509 17.5 10 17.5C10.9849 17.5 11.9602 17.306 12.8701 16.9291C13.7801 16.5522 14.6069 15.9997 15.3033 15.3033C15.9997 14.6069 16.5522 13.7801 16.9291 12.8701C17.306 11.9602 17.5 10.9849 17.5 10C17.5 9.01509 17.306 8.03982 16.9291 7.12987C16.5522 6.21993 15.9997 5.39314 15.3033 4.6967C14.6069 4.00026 13.7801 3.44781 12.8701 3.0709C11.9602 2.69399 10.9849 2.5 10 2.5C9.01509 2.5 8.03982 2.69399 7.12987 3.0709C6.21993 3.44781 5.39314 4.00026 4.6967 4.6967C4.00026 5.39314 3.44781 6.21993 3.0709 7.12987C2.69399 8.03982 2.5 9.01509 2.5 10Z" stroke="#222222" stroke-width="1.5" stroke-linecap="round" stroke-linejoin="round"/>
</svg>
