<svg width="20" height="20" viewBox="0 0 20 20" fill="none" xmlns="http://www.w3.org/2000/svg">
<path d="M15 10H15.0083M5 10H5.00833M10.8333 15H4.16667C3.72464 15 3.30072 14.8244 2.98816 14.5118C2.67559 14.1993 2.5 13.7754 2.5 13.3333V6.66667C2.5 6.22464 2.67559 5.80072 2.98816 5.48816C3.30072 5.17559 3.72464 5 4.16667 5H15.8333C16.2754 5 16.6993 5.17559 17.0118 5.48816C17.3244 5.80072 17.5 6.22464 17.5 6.66667V10.8333M13.3333 15L15.4167 16.6667M15.4167 16.6667L17.5 15M15.4167 16.6667V12.5M11.25 8.125H9.6875C9.43886 8.125 9.2004 8.22377 9.02459 8.39959C8.84877 8.5754 8.75 8.81386 8.75 9.0625C8.75 9.31114 8.84877 9.5496 9.02459 9.72541C9.2004 9.90123 9.43886 10 9.6875 10H10.3125C10.5611 10 10.7996 10.0988 10.9754 10.2746C11.1512 10.4504 11.25 10.6889 11.25 10.9375C11.25 11.1861 11.1512 11.4246 10.9754 11.6004C10.7996 11.7762 10.5611 11.875 10.3125 11.875H8.75M10 11.875V12.5M10 7.5V8.125" stroke="#222222" stroke-width="1.5" stroke-linecap="round" stroke-linejoin="round"/>
</svg>
