<svg width="20" height="20" viewBox="0 0 20 20" fill="none" xmlns="http://www.w3.org/2000/svg">
<path d="M13.75 6.25001V6.25834M3.33337 6.66668C3.33337 5.78262 3.68456 4.93478 4.30968 4.30965C4.93481 3.68453 5.78265 3.33334 6.66671 3.33334H13.3334C14.2174 3.33334 15.0653 3.68453 15.6904 4.30965C16.3155 4.93478 16.6667 5.78262 16.6667 6.66668V13.3333C16.6667 14.2174 16.3155 15.0652 15.6904 15.6904C15.0653 16.3155 14.2174 16.6667 13.3334 16.6667H6.66671C5.78265 16.6667 4.93481 16.3155 4.30968 15.6904C3.68456 15.0652 3.33337 14.2174 3.33337 13.3333V6.66668ZM7.50004 10C7.50004 10.6631 7.76343 11.2989 8.23227 11.7678C8.70111 12.2366 9.337 12.5 10 12.5C10.6631 12.5 11.299 12.2366 11.7678 11.7678C12.2366 11.2989 12.5 10.6631 12.5 10C12.5 9.33697 12.2366 8.70108 11.7678 8.23224C11.299 7.7634 10.6631 7.50001 10 7.50001C9.337 7.50001 8.70111 7.7634 8.23227 8.23224C7.76343 8.70108 7.50004 9.33697 7.50004 10Z" stroke="#222222" stroke-width="1.5" stroke-linecap="round" stroke-linejoin="round"/>
</svg>
