<svg width="20" height="20" viewBox="0 0 20 20" fill="none" xmlns="http://www.w3.org/2000/svg">
<path d="M11.2083 9.62498L12.9167 7.91665M8.33333 10.8333C8.33333 11.2753 8.50893 11.6993 8.82149 12.0118C9.13405 12.3244 9.55797 12.5 10 12.5C10.442 12.5 10.866 12.3244 11.1785 12.0118C11.4911 11.6993 11.6667 11.2753 11.6667 10.8333C11.6667 10.3913 11.4911 9.96737 11.1785 9.65481C10.866 9.34225 10.442 9.16665 10 9.16665C9.55797 9.16665 9.13405 9.34225 8.82149 9.65481C8.50893 9.96737 8.33333 10.3913 8.33333 10.8333ZM5.33333 16.6667C4.11512 15.6984 3.22826 14.3752 2.79565 12.8804C2.36304 11.3856 2.4061 9.79322 2.91887 8.32399C3.43164 6.85476 4.38873 5.58141 5.65749 4.6804C6.92625 3.77939 8.44386 3.29535 10 3.29535C11.5561 3.29535 13.0737 3.77939 14.3425 4.6804C15.6113 5.58141 16.5684 6.85476 17.0811 8.32399C17.5939 9.79322 17.637 11.3856 17.2044 12.8804C16.7717 14.3752 15.8849 15.6984 14.6667 16.6667H5.33333Z" stroke="#222222" stroke-width="1.5" stroke-linecap="round" stroke-linejoin="round"/>
</svg>
