<svg width="20" height="20" viewBox="0 0 20 20" fill="none" xmlns="http://www.w3.org/2000/svg">
<path d="M6.66671 9.16668V13.3333M6.66671 6.66668V6.67501M10 13.3333V9.16668M13.3334 13.3333V10.8333C13.3334 10.3913 13.1578 9.96739 12.8452 9.65483C12.5327 9.34227 12.1087 9.16668 11.6667 9.16668C11.2247 9.16668 10.8008 9.34227 10.4882 9.65483C10.1756 9.96739 10 10.3913 10 10.8333M3.33337 5.00001C3.33337 4.55798 3.50897 4.13406 3.82153 3.8215C4.13409 3.50894 4.55801 3.33334 5.00004 3.33334H15C15.4421 3.33334 15.866 3.50894 16.1786 3.8215C16.4911 4.13406 16.6667 4.55798 16.6667 5.00001V15C16.6667 15.442 16.4911 15.866 16.1786 16.1785C15.866 16.4911 15.4421 16.6667 15 16.6667H5.00004C4.55801 16.6667 4.13409 16.4911 3.82153 16.1785C3.50897 15.866 3.33337 15.442 3.33337 15V5.00001Z" stroke="#222222" stroke-width="1.5" stroke-linecap="round" stroke-linejoin="round"/>
</svg>
