<svg width="20" height="20" viewBox="0 0 20 20" fill="none" xmlns="http://www.w3.org/2000/svg">
<path d="M10 15.4167L7.5 14.1667M7.5 14.1667L2.5 16.6667V5.83334L7.5 3.33334M7.5 14.1667V3.33334M7.5 3.33334L12.5 5.83334M12.5 5.83334L17.5 3.33334V9.58334M12.5 5.83334V10.4167M15.8333 15V15.0083M17.6008 16.7675C17.9505 16.4179 18.1887 15.9725 18.2852 15.4875C18.3818 15.0025 18.3323 14.4998 18.1431 14.043C17.9539 13.5861 17.6335 13.1956 17.2223 12.9209C16.8112 12.6461 16.3278 12.4995 15.8333 12.4995C15.3388 12.4995 14.8555 12.6461 14.4443 12.9209C14.0332 13.1956 13.7128 13.5861 13.5236 14.043C13.3344 14.4998 13.2849 15.0025 13.3814 15.4875C13.478 15.9725 13.7161 16.4179 14.0658 16.7675C14.4142 17.1167 15.0033 17.6384 15.8333 18.3334C16.7092 17.5917 17.2992 17.07 17.6008 16.7675Z" stroke="#222222" stroke-width="1.5" stroke-linecap="round" stroke-linejoin="round"/>
</svg>
