<svg width="20" height="20" viewBox="0 0 20 20" fill="none" xmlns="http://www.w3.org/2000/svg">
<path d="M3.33337 9.99999C3.33337 10.221 3.42117 10.433 3.57745 10.5892C3.73373 10.7455 3.94569 10.8333 4.16671 10.8333C4.38772 10.8333 4.59968 10.7455 4.75596 10.5892C4.91224 10.433 5.00004 10.221 5.00004 9.99999C5.00004 9.77898 4.91224 9.56701 4.75596 9.41073C4.59968 9.25445 4.38772 9.16666 4.16671 9.16666C3.94569 9.16666 3.73373 9.25445 3.57745 9.41073C3.42117 9.56701 3.33337 9.77898 3.33337 9.99999Z" stroke="#222222" stroke-width="1.5" stroke-linecap="round" stroke-linejoin="round"/>
<path d="M9.16671 9.99999C9.16671 10.221 9.2545 10.433 9.41079 10.5892C9.56707 10.7455 9.77903 10.8333 10 10.8333C10.2211 10.8333 10.433 10.7455 10.5893 10.5892C10.7456 10.433 10.8334 10.221 10.8334 9.99999C10.8334 9.77898 10.7456 9.56701 10.5893 9.41073C10.433 9.25445 10.2211 9.16666 10 9.16666C9.77903 9.16666 9.56707 9.25445 9.41079 9.41073C9.2545 9.56701 9.16671 9.77898 9.16671 9.99999Z" stroke="#222222" stroke-width="1.5" stroke-linecap="round" stroke-linejoin="round"/>
<path d="M15 9.99999C15 10.221 15.0878 10.433 15.2441 10.5892C15.4004 10.7455 15.6124 10.8333 15.8334 10.8333C16.0544 10.8333 16.2663 10.7455 16.4226 10.5892C16.5789 10.433 16.6667 10.221 16.6667 9.99999C16.6667 9.77898 16.5789 9.56701 16.4226 9.41073C16.2663 9.25445 16.0544 9.16666 15.8334 9.16666C15.6124 9.16666 15.4004 9.25445 15.2441 9.41073C15.0878 9.56701 15 9.77898 15 9.99999Z" stroke="#222222" stroke-width="1.5" stroke-linecap="round" stroke-linejoin="round"/>
</svg>
