<svg width="20" height="20" viewBox="0 0 20 20" fill="none" xmlns="http://www.w3.org/2000/svg">
<path d="M8.33337 13.3333H13.3334M3.33337 6.66668H5.83337M3.33337 10H5.83337M3.33337 13.3333H5.83337M16.6667 5.00001V15C16.6667 15.442 16.4911 15.866 16.1786 16.1785C15.866 16.4911 15.4421 16.6667 15 16.6667H6.66671C6.22468 16.6667 5.80076 16.4911 5.4882 16.1785C5.17564 15.866 5.00004 15.442 5.00004 15V5.00001C5.00004 4.55798 5.17564 4.13406 5.4882 3.8215C5.80076 3.50894 6.22468 3.33334 6.66671 3.33334H15C15.4421 3.33334 15.866 3.50894 16.1786 3.8215C16.4911 4.13406 16.6667 4.55798 16.6667 5.00001ZM9.16671 9.16668C9.16671 9.6087 9.3423 10.0326 9.65486 10.3452C9.96742 10.6577 10.3913 10.8333 10.8334 10.8333C11.2754 10.8333 11.6993 10.6577 12.0119 10.3452C12.3244 10.0326 12.5 9.6087 12.5 9.16668C12.5 8.72465 12.3244 8.30073 12.0119 7.98817C11.6993 7.67561 11.2754 7.50001 10.8334 7.50001C10.3913 7.50001 9.96742 7.67561 9.65486 7.98817C9.3423 8.30073 9.16671 8.72465 9.16671 9.16668Z" stroke="#222222" stroke-width="1.5" stroke-linecap="round" stroke-linejoin="round"/>
</svg>
