<svg width="20" height="20" viewBox="0 0 20 20" fill="none" xmlns="http://www.w3.org/2000/svg">
<path d="M15.8333 8.33333L10 2.5L2.5 10H4.16667V15.8333C4.16667 16.2754 4.34226 16.6993 4.65482 17.0118C4.96738 17.3244 5.39131 17.5 5.83333 17.5H10.8333M7.5 17.5V12.5C7.5 12.058 7.67559 11.6341 7.98816 11.3215C8.30072 11.0089 8.72464 10.8333 9.16667 10.8333H10.8333C11.1558 10.8333 11.4567 10.925 11.7117 11.0833M17.5 12.5H15.4167C15.0851 12.5 14.7672 12.6317 14.5328 12.8661C14.2984 13.1005 14.1667 13.4185 14.1667 13.75C14.1667 14.0815 14.2984 14.3995 14.5328 14.6339C14.7672 14.8683 15.0851 15 15.4167 15H16.25C16.5815 15 16.8995 15.1317 17.1339 15.3661C17.3683 15.6005 17.5 15.9185 17.5 16.25C17.5 16.5815 17.3683 16.8995 17.1339 17.1339C16.8995 17.3683 16.5815 17.5 16.25 17.5H14.1667M15.8333 17.5V18.3333M15.8333 11.6667V12.5" stroke="#222222" stroke-width="1.5" stroke-linecap="round" stroke-linejoin="round"/>
</svg>
