<svg width="20" height="20" viewBox="0 0 20 20" fill="none" xmlns="http://www.w3.org/2000/svg">
<path d="M14.6442 15.3392L17.0059 12.9775C17.1626 12.8208 17.2869 12.6348 17.3717 12.43C17.4566 12.2253 17.5002 12.0058 17.5002 11.7842C17.5002 11.5626 17.4566 11.3431 17.3717 11.1384C17.2869 10.9336 17.1626 10.7476 17.0059 10.5909L11.075 4.66086M4.99999 7.50001H4.99166M6.54917 5.00001H4.1875C3.73995 5.00001 3.31072 5.1778 2.99426 5.49427C2.67779 5.81073 2.5 6.23996 2.5 6.68751V9.04918C2.5 9.49668 2.6775 9.92584 2.99417 10.2425L8.09083 15.3392C8.24754 15.4959 8.43358 15.6202 8.63833 15.705C8.84308 15.7899 9.06254 15.8335 9.28417 15.8335C9.50579 15.8335 9.72525 15.7899 9.93 15.705C10.1348 15.6202 10.3208 15.4959 10.4775 15.3392L12.8392 12.9775C12.9959 12.8208 13.1202 12.6348 13.205 12.43C13.2899 12.2253 13.3335 12.0058 13.3335 11.7842C13.3335 11.5625 13.2899 11.3431 13.205 11.1383C13.1202 10.9336 12.9959 10.7475 12.8392 10.5908L7.74167 5.49418C7.42537 5.17792 6.99645 5.00018 6.54917 5.00001Z" stroke="#222222" stroke-width="1.5" stroke-linecap="round" stroke-linejoin="round"/>
</svg>
