<svg width="20" height="20" viewBox="0 0 20 20" fill="none" xmlns="http://www.w3.org/2000/svg">
<path d="M16.0483 8.54833L10 2.5L2.5 10H4.16667V15.8333C4.16667 16.2754 4.34226 16.6993 4.65482 17.0118C4.96738 17.3244 5.39131 17.5 5.83333 17.5H9.16667M7.5 17.5V12.5C7.5 12.058 7.67559 11.6341 7.98816 11.3215C8.30072 11.0089 8.72464 10.8333 9.16667 10.8333H10.4167M14.8333 17.3475L13.0233 18.2958C12.9696 18.3238 12.9092 18.3363 12.8488 18.3319C12.7884 18.3275 12.7304 18.3064 12.6813 18.2709C12.6322 18.2355 12.5939 18.1871 12.5708 18.1312C12.5476 18.0752 12.5404 18.0139 12.55 17.9542L12.8958 15.945L11.4317 14.5225C11.388 14.4803 11.357 14.4266 11.3424 14.3676C11.3277 14.3086 11.3299 14.2467 11.3488 14.1889C11.3677 14.1311 11.4024 14.0798 11.449 14.0408C11.4956 14.0018 11.5523 13.9767 11.6125 13.9683L13.6358 13.675L14.5408 11.8475C14.5679 11.7931 14.6096 11.7473 14.6613 11.7153C14.713 11.6832 14.7725 11.6663 14.8333 11.6663C14.8941 11.6663 14.9537 11.6832 15.0054 11.7153C15.057 11.7473 15.0988 11.7931 15.1258 11.8475L16.0308 13.675L18.0542 13.9683C18.1142 13.977 18.1706 14.0022 18.217 14.0413C18.2635 14.0803 18.298 14.1315 18.3169 14.1892C18.3357 14.2469 18.338 14.3086 18.3235 14.3675C18.309 14.4264 18.2784 14.4801 18.235 14.5225L16.7708 15.945L17.1158 17.9533C17.1262 18.0132 17.1195 18.0748 17.0966 18.1311C17.0738 18.1874 17.0355 18.2362 16.9863 18.2718C16.9371 18.3075 16.8789 18.3287 16.8183 18.3329C16.7576 18.3371 16.697 18.3243 16.6433 18.2958L14.8333 17.3475Z" stroke="#222222" stroke-width="1.5" stroke-linecap="round" stroke-linejoin="round"/>
</svg>
