<svg width="20" height="20" viewBox="0 0 20 20" fill="none" xmlns="http://www.w3.org/2000/svg">
<path d="M16.2501 10.4766L10.0001 16.6666L3.75009 10.4766C3.33784 10.0754 3.01312 9.59328 2.79638 9.06046C2.57963 8.52765 2.47556 7.95573 2.4907 7.38071C2.50585 6.8057 2.63989 6.24005 2.88439 5.71938C3.12888 5.19871 3.47853 4.73431 3.91133 4.35542C4.34412 3.97652 4.85068 3.69134 5.3991 3.51783C5.94752 3.34433 6.52593 3.28625 7.09789 3.34727C7.66986 3.40828 8.223 3.58706 8.72248 3.87236C9.22196 4.15765 9.65696 4.54327 10.0001 5.00493C10.3447 4.54662 10.7802 4.16437 11.2793 3.8821C11.7785 3.59984 12.3305 3.42364 12.9009 3.36453C13.4712 3.30543 14.0477 3.36468 14.5941 3.53859C15.1405 3.71251 15.6451 3.99733 16.0764 4.37524C16.5077 4.75315 16.8563 5.216 17.1004 5.73484C17.3446 6.25368 17.479 6.81734 17.4953 7.39052C17.5117 7.96371 17.4095 8.53409 17.1952 9.06598C16.9809 9.59786 16.6592 10.0798 16.2501 10.4816M10 4.99999L7.25585 7.74416C7.09962 7.90043 7.01186 8.11235 7.01186 8.33332C7.01186 8.55429 7.09962 8.76622 7.25585 8.92249L7.70835 9.37499C8.28335 9.94999 9.21668 9.94999 9.79168 9.37499L10.625 8.54166C11.1223 8.04438 11.7968 7.76501 12.5 7.76501C13.2033 7.76501 13.8777 8.04438 14.375 8.54166L16.25 10.4167M10.4167 12.9167L12.0834 14.5833M12.5 10.8333L14.1667 12.5" stroke="#222222" stroke-width="1.5" stroke-linecap="round" stroke-linejoin="round"/>
</svg>
