<svg width="20" height="20" viewBox="0 0 20 20" fill="none" xmlns="http://www.w3.org/2000/svg">
<path d="M16.6667 9.16662C16.4629 7.70013 15.7826 6.34133 14.7306 5.29953C13.6785 4.25773 12.3132 3.59071 10.8448 3.40124C9.37636 3.21177 7.88639 3.51035 6.60438 4.25099C5.32236 4.99162 4.31941 6.13323 3.75004 7.49995M3.33337 4.16662V7.49995H6.66671M3.33337 10.8333C3.53717 12.2998 4.21748 13.6586 5.26951 14.7004C6.32153 15.7422 7.68691 16.4092 9.15531 16.5987C10.6237 16.7882 12.1137 16.4896 13.3957 15.749C14.6777 15.0083 15.6807 13.8667 16.25 12.5M16.6667 15.8333V12.5H13.3334" stroke="#222222" stroke-width="1.5" stroke-linecap="round" stroke-linejoin="round"/>
</svg>
