<svg width="20" height="20" viewBox="0 0 20 20" fill="none" xmlns="http://www.w3.org/2000/svg">
<path d="M2.49996 17.5H17.5M12.1991 8.54833L16.2241 7.47C16.437 7.40852 16.66 7.3901 16.8801 7.41584C17.1001 7.44157 17.3129 7.51093 17.5059 7.61986C17.6988 7.7288 17.8681 7.87511 18.0039 8.05026C18.1396 8.2254 18.2391 8.42586 18.2964 8.6399C18.3537 8.85393 18.3678 9.07726 18.3378 9.29681C18.3079 9.51635 18.2344 9.72772 18.1217 9.91853C18.0091 10.1093 17.8595 10.2758 17.6818 10.4081C17.504 10.5404 17.3017 10.636 17.0866 10.6892L5.01241 13.925L1.30408 9.74167L3.71824 9.095L5.75991 10.2733L8.17408 9.62667L5.05491 4.42333L7.46991 3.77583L12.1991 8.54833Z" stroke="#222222" stroke-width="1.5" stroke-linecap="round" stroke-linejoin="round"/>
</svg>
