<svg width="20" height="20" viewBox="0 0 20 20" fill="none" xmlns="http://www.w3.org/2000/svg">
<path d="M3.33337 6.66668H5.00004M3.33337 10H5.83337M3.33337 13.3333H5.00004M6.66671 3.33334V5.00001M10 3.33334V5.83334M13.3334 3.33334V5.00001M4.16671 3.33334H15.8334C16.0544 3.33334 16.2663 3.42114 16.4226 3.57742C16.5789 3.7337 16.6667 3.94566 16.6667 4.16668V8.33334C16.6667 8.55436 16.5789 8.76632 16.4226 8.9226C16.2663 9.07888 16.0544 9.16668 15.8334 9.16668H10C9.77903 9.16668 9.56707 9.25447 9.41079 9.41075C9.2545 9.56703 9.16671 9.779 9.16671 10V15.8333C9.16671 16.0544 9.07891 16.2663 8.92263 16.4226C8.76635 16.5789 8.55439 16.6667 8.33337 16.6667H4.16671C3.94569 16.6667 3.73373 16.5789 3.57745 16.4226C3.42117 16.2663 3.33337 16.0544 3.33337 15.8333V4.16668C3.33337 3.94566 3.42117 3.7337 3.57745 3.57742C3.73373 3.42114 3.94569 3.33334 4.16671 3.33334Z" stroke="#222222" stroke-width="1.5" stroke-linecap="round" stroke-linejoin="round"/>
</svg>
