<svg width="20" height="20" viewBox="0 0 20 20" fill="none" xmlns="http://www.w3.org/2000/svg">
<path d="M11.6666 2.5V5.83333C11.6666 6.05435 11.7544 6.26631 11.9107 6.42259C12.067 6.57887 12.2789 6.66667 12.5 6.66667H15.8333M11.6666 2.5H5.83329C5.39127 2.5 4.96734 2.67559 4.65478 2.98816C4.34222 3.30072 4.16663 3.72464 4.16663 4.16667V15.8333C4.16663 16.2754 4.34222 16.6993 4.65478 17.0118C4.96734 17.3244 5.39127 17.5 5.83329 17.5H14.1666C14.6087 17.5 15.0326 17.3244 15.3451 17.0118C15.6577 16.6993 15.8333 16.2754 15.8333 15.8333V6.66667M11.6666 2.5L15.8333 6.66667M11.6666 9.16667H9.58329C9.25177 9.16667 8.93383 9.29836 8.69941 9.53278C8.46499 9.7672 8.33329 10.0851 8.33329 10.4167C8.33329 10.7482 8.46499 11.0661 8.69941 11.3006C8.93383 11.535 9.25177 11.6667 9.58329 11.6667H10.4166C10.7481 11.6667 11.0661 11.7984 11.3005 12.0328C11.5349 12.2672 11.6666 12.5851 11.6666 12.9167C11.6666 13.2482 11.5349 13.5661 11.3005 13.8005C11.0661 14.035 10.7481 14.1667 10.4166 14.1667H8.33329M9.99996 14.1667V15M9.99996 8.33333V9.16667" stroke="#222222" stroke-width="1.5" stroke-linecap="round" stroke-linejoin="round"/>
</svg>
