<svg width="20" height="20" viewBox="0 0 20 20" fill="none" xmlns="http://www.w3.org/2000/svg">
<path d="M3.33325 11.6667V9.16667C3.33325 7.39856 4.03563 5.70286 5.28587 4.45262C6.53612 3.20238 8.23181 2.5 9.99992 2.5C11.768 2.5 13.4637 3.20238 14.714 4.45262C15.9642 5.70286 16.6666 7.39856 16.6666 9.16667V11.6667M3.33325 11.6667C3.33325 11.2246 3.50885 10.8007 3.82141 10.4882C4.13397 10.1756 4.55789 10 4.99992 10H5.83325C6.27528 10 6.6992 10.1756 7.01176 10.4882C7.32432 10.8007 7.49992 11.2246 7.49992 11.6667V14.1667C7.49992 14.6087 7.32432 15.0326 7.01176 15.3452C6.6992 15.6577 6.27528 15.8333 5.83325 15.8333H4.99992C4.55789 15.8333 4.13397 15.6577 3.82141 15.3452C3.50885 15.0326 3.33325 14.6087 3.33325 14.1667V11.6667ZM16.6666 11.6667C16.6666 11.2246 16.491 10.8007 16.1784 10.4882C15.8659 10.1756 15.4419 10 14.9999 10H14.1666C13.7246 10 13.3006 10.1756 12.9881 10.4882C12.6755 10.8007 12.4999 11.2246 12.4999 11.6667V14.1667C12.4999 14.6087 12.6755 15.0326 12.9881 15.3452C13.3006 15.6577 13.7246 15.8333 14.1666 15.8333H14.9999M16.6666 11.6667V14.1667C16.6666 14.6087 16.491 15.0326 16.1784 15.3452C15.8659 15.6577 15.4419 15.8333 14.9999 15.8333M14.9999 15.8333C14.9999 17.2142 12.7616 18.3333 9.99992 18.3333" stroke="#222222" stroke-width="1.5" stroke-linecap="round" stroke-linejoin="round"/>
</svg>
