<svg width="20" height="20" viewBox="0 0 20 20" fill="none" xmlns="http://www.w3.org/2000/svg">
<path d="M5 9.16666L8.33333 7.49999L11.25 9.99999L10 11.6667M2.5 13.9583C2.75941 14.0873 3.04375 14.1584 3.33333 14.1667C3.65791 14.1735 3.97927 14.1011 4.26965 13.956C4.56002 13.8108 4.81069 13.5971 5 13.3333C5.18931 13.0696 5.43998 12.8559 5.73035 12.7107C6.02073 12.5655 6.34209 12.4932 6.66667 12.5C6.99125 12.4932 7.3126 12.5655 7.60298 12.7107C7.89336 12.8559 8.14402 13.0696 8.33333 13.3333C8.52264 13.5971 8.77331 13.8108 9.06369 13.956C9.35406 14.1011 9.67542 14.1735 10 14.1667C10.3246 14.1735 10.6459 14.1011 10.9363 13.956C11.2267 13.8108 11.4774 13.5971 11.6667 13.3333C11.856 13.0696 12.1066 12.8559 12.397 12.7107C12.6874 12.5655 13.0088 12.4932 13.3333 12.5C13.6579 12.4932 13.9793 12.5655 14.2696 12.7107C14.56 12.8559 14.8107 13.0696 15 13.3333C15.1893 13.5971 15.44 13.8108 15.7304 13.956C16.0207 14.1011 16.3421 14.1735 16.6667 14.1667C16.9563 14.1584 17.2406 14.0873 17.5 13.9583M12.5 7.49999C12.5 7.721 12.5878 7.93297 12.7441 8.08925C12.9004 8.24553 13.1123 8.33332 13.3333 8.33332C13.5543 8.33332 13.7663 8.24553 13.9226 8.08925C14.0789 7.93297 14.1667 7.721 14.1667 7.49999C14.1667 7.27898 14.0789 7.06701 13.9226 6.91073C13.7663 6.75445 13.5543 6.66666 13.3333 6.66666C13.1123 6.66666 12.9004 6.75445 12.7441 6.91073C12.5878 7.06701 12.5 7.27898 12.5 7.49999Z" stroke="#222222" stroke-width="1.5" stroke-linecap="round" stroke-linejoin="round"/>
</svg>
