<svg width="20" height="20" viewBox="0 0 20 20" fill="none" xmlns="http://www.w3.org/2000/svg">
<path d="M14.1667 6.66666V4.16666C14.1667 3.94565 14.0789 3.73369 13.9226 3.57741C13.7663 3.42113 13.5544 3.33333 13.3334 3.33333H5.00004C4.55801 3.33333 4.13409 3.50892 3.82153 3.82148C3.50897 4.13404 3.33337 4.55797 3.33337 4.99999M3.33337 4.99999C3.33337 5.44202 3.50897 5.86595 3.82153 6.17851C4.13409 6.49107 4.55801 6.66666 5.00004 6.66666H15C15.2211 6.66666 15.433 6.75446 15.5893 6.91074C15.7456 7.06702 15.8334 7.27898 15.8334 7.49999V9.99999M3.33337 4.99999V15C3.33337 15.442 3.50897 15.8659 3.82153 16.1785C4.13409 16.4911 4.55801 16.6667 5.00004 16.6667H15C15.2211 16.6667 15.433 16.5789 15.5893 16.4226C15.7456 16.2663 15.8334 16.0543 15.8334 15.8333V13.3333M16.6667 9.99999V13.3333H13.3334C12.8913 13.3333 12.4674 13.1577 12.1549 12.8452C11.8423 12.5326 11.6667 12.1087 11.6667 11.6667C11.6667 11.2246 11.8423 10.8007 12.1549 10.4882C12.4674 10.1756 12.8913 9.99999 13.3334 9.99999H16.6667Z" stroke="#222222" stroke-width="1.5" stroke-linecap="round" stroke-linejoin="round"/>
</svg>
