<svg width="20" height="20" viewBox="0 0 20 20" fill="none" xmlns="http://www.w3.org/2000/svg">
<path d="M1.66663 6.66668C1.66663 5.78262 2.01782 4.93478 2.64294 4.30965C3.26806 3.68453 4.1159 3.33334 4.99996 3.33334H15C15.884 3.33334 16.7319 3.68453 17.357 4.30965C17.9821 4.93478 18.3333 5.78262 18.3333 6.66668V13.3333C18.3333 14.2174 17.9821 15.0652 17.357 15.6904C16.7319 16.3155 15.884 16.6667 15 16.6667H4.99996C4.1159 16.6667 3.26806 16.3155 2.64294 15.6904C2.01782 15.0652 1.66663 14.2174 1.66663 13.3333V6.66668Z" stroke="#222222" stroke-width="1.5" stroke-linecap="round" stroke-linejoin="round"/>
<path d="M8.33329 7.50001L12.5 10L8.33329 12.5V7.50001Z" stroke="#222222" stroke-width="1.5" stroke-linecap="round" stroke-linejoin="round"/>
</svg>
