<svg
xmlns="http://www.w3.org/2000/svg"
width="40"
height="40"
viewBox="0 0 40 40"
fill="none"
>
<mask
    id="mask0_10371_160"
    style="mask-type: luminance"
    maskUnits="userSpaceOnUse"
    x="0"
    y="0"
    width="40"
    height="40"
>
    <path
    d="M39.0476 0.476074H0V39.5237H39.0476V0.476074Z"
    fill="white"
    />
</mask>
<g mask="url(#mask0_10371_160)">
    <path
    d="M25.9069 28.216L26.3547 28.6636L26.3332 28.6851L26.3486 28.7004L25.9009 29.1481L20.1601 34.8879L19.6142 35.4337L19.1879 34.7898C19.1112 34.6733 19.0377 34.5599 18.9732 34.4495C18.9089 34.3452 18.8445 34.2348 18.7831 34.1245L18.7494 34.0631L18.7157 34.0048C18.6666 33.916 18.6237 33.8363 18.5808 33.7504L18.5777 33.7412C18.5409 33.6706 18.5071 33.6032 18.4734 33.5296C18.4335 33.4529 18.3968 33.3702 18.3599 33.2904C18.3139 33.1924 18.2679 33.085 18.2219 32.9807C18.1851 32.8919 18.1484 32.7999 18.1115 32.7048C18.0962 32.668 18.0809 32.6282 18.0686 32.5883C18.0349 32.4994 18.0042 32.4135 17.9766 32.3338C17.9644 32.297 17.9521 32.2633 17.9398 32.2296C17.9091 32.1437 17.8815 32.0548 17.857 31.9689C17.8478 31.9383 17.8325 31.8984 17.8232 31.8524C17.8232 31.8524 17.8232 31.8493 17.8232 31.8463V31.8371L17.8171 31.8248C17.7834 31.7114 17.7558 31.6071 17.7312 31.5121C17.7068 31.417 17.6822 31.3189 17.6577 31.2146L17.6485 31.1779C17.6424 31.1472 17.6362 31.1196 17.6301 31.0889L17.6209 31.0491C17.5964 30.9448 17.5749 30.8375 17.5565 30.7271C17.535 30.6076 17.5105 30.4787 17.4951 30.3439C17.4798 30.2519 17.4675 30.1538 17.4522 30.0311V30.0219V30.0127V29.9882C17.443 29.9514 17.4399 29.9115 17.4369 29.8747C17.4277 29.7766 17.4154 29.6754 17.4092 29.5682C17.4092 29.5436 17.4062 29.5222 17.4062 29.5068C17.397 29.3995 17.3909 29.2952 17.3878 29.1879C17.3878 29.1572 17.3878 29.1235 17.3848 29.0898C17.3786 28.9825 17.3786 28.866 17.3786 28.7188C17.3786 27.6027 17.5411 26.5143 17.8662 25.4686L14.5205 28.8139C14.5328 30.5769 14.8701 32.294 15.5264 33.9221C16.2225 35.6391 17.2437 37.1814 18.5624 38.506L19.4241 39.3706L19.5712 39.5179L30.372 28.7188L22.0461 20.3942L21.5983 19.9465L21.3499 19.6951L19.9914 18.3398L13.4195 11.769L12.9718 11.3214L12.9964 11.2968L13.438 10.8462L19.1788 5.10626L19.7246 4.56048L20.1509 5.20437C21.3408 7.00115 21.9694 9.0984 21.9694 11.2724C21.9694 11.7323 21.9418 12.1861 21.8835 12.6337L24.7447 9.77293C24.6098 8.49744 24.2969 7.25257 23.8186 6.06597C23.1225 4.34892 22.1012 2.8097 20.7826 1.48512L19.7706 0.470215L8.9668 11.2785L25.9069 28.216Z"
    fill="#FF385C"
    />
    <path
    d="M10.7949 26.704L10.3472 26.2563L4.63099 20.541L4.08819 19.9983L4.72913 19.5721C6.53231 18.3671 8.63603 17.7324 10.8195 17.7324C10.9698 17.7324 11.1169 17.7324 11.2672 17.7417L8.58083 15.0557C7.56271 15.2212 6.56297 15.5002 5.60925 15.8897C3.89499 16.5857 2.35247 17.6098 1.03074 18.9313L0.00341797 19.9584L10.2031 30.1565L16.9436 23.4171L15.5145 21.9882L11.2426 26.2595L10.7949 26.7071V26.704Z"
    fill="#FF385C"
    />
    <path
    d="M27.6583 12.6983L28.106 13.146L34.4172 19.4562L34.9599 19.9988L34.3221 20.425C32.5251 21.6301 30.4213 22.2648 28.2348 22.2678C28.1888 22.2678 28.1428 22.2678 28.0968 22.2678L30.7311 24.9017C31.6541 24.733 32.5649 24.4663 33.4419 24.1106C35.1593 23.4146 36.7018 22.3905 38.0235 21.0689L39.0478 20.0448L28.2532 9.25195L21.666 15.8381L23.0951 17.2669L27.2167 13.146L27.6644 12.6983H27.6583Z"
    fill="#FF385C"
    />
</g>
</svg>