<svg
xmlns="http://www.w3.org/2000/svg"
width="150"
height="22"
viewBox="0 0 150 22"
fill="none"
>
<path
    d="M0.438477 16.619L6.31277 0.619012H9.37562L15.2042 16.619H12.3013L7.82134 3.81901L3.31848 16.619H0.438477ZM3.04419 12.8476L3.79848 10.6762H11.6613L12.3928 12.8476H3.04419ZM17.2913 16.619V5.28187H19.737L19.9885 7.43044C20.2628 6.92758 20.598 6.50092 20.9942 6.15044C21.3904 5.78473 21.8551 5.50282 22.3885 5.30473C22.9218 5.10663 23.5161 5.00758 24.1713 5.00758V7.88758H23.417C22.9294 7.88758 22.4799 7.94854 22.0685 8.07044C21.657 8.17711 21.299 8.35996 20.9942 8.61901C20.6894 8.87806 20.4532 9.23616 20.2856 9.6933C20.118 10.1352 20.0342 10.6838 20.0342 11.339V16.619H17.2913ZM26.1975 16.619V5.28187H28.6432L28.8947 7.43044C29.169 6.92758 29.5042 6.50092 29.9004 6.15044C30.2966 5.78473 30.7613 5.50282 31.2947 5.30473C31.828 5.10663 32.4223 5.00758 33.0775 5.00758V7.88758H32.3232C31.8356 7.88758 31.3861 7.94854 30.9747 8.07044C30.5632 8.17711 30.2051 8.35996 29.9004 8.61901C29.5956 8.87806 29.3594 9.23616 29.1918 9.6933C29.0242 10.1352 28.9404 10.6838 28.9404 11.339V16.619H26.1975ZM40.2297 16.8933C39.1478 16.8933 38.165 16.6419 37.2811 16.139C36.4126 15.6362 35.7269 14.9428 35.224 14.059C34.7211 13.16 34.4697 12.1238 34.4697 10.9504C34.4697 9.77711 34.7211 8.74092 35.224 7.84187C35.7421 6.94282 36.4354 6.24949 37.304 5.76187C38.1878 5.25901 39.1707 5.00758 40.2526 5.00758C41.3497 5.00758 42.3326 5.25901 43.2011 5.76187C44.0697 6.24949 44.7554 6.94282 45.2583 7.84187C45.7764 8.72568 46.0354 9.76187 46.0354 10.9504C46.0354 12.1238 45.7764 13.16 45.2583 14.059C44.7554 14.9428 44.0621 15.6362 43.1783 16.139C42.3097 16.6419 41.3269 16.8933 40.2297 16.8933ZM40.2297 14.539C40.7783 14.539 41.2735 14.4095 41.7154 14.1504C42.1726 13.8762 42.5383 13.4723 42.8126 12.939C43.0869 12.4057 43.224 11.7428 43.224 10.9504C43.224 10.1581 43.0869 9.4952 42.8126 8.96187C42.5383 8.42854 42.1726 8.03235 41.7154 7.7733C41.2735 7.49901 40.7859 7.36187 40.2526 7.36187C39.7345 7.36187 39.2469 7.49901 38.7897 7.7733C38.3326 8.03235 37.9592 8.42854 37.6697 8.96187C37.3954 9.4952 37.2583 10.1581 37.2583 10.9504C37.2583 11.7276 37.3954 12.3904 37.6697 12.939C37.9592 13.4723 38.325 13.8762 38.7669 14.1504C39.224 14.4095 39.7116 14.539 40.2297 14.539ZM50.4914 16.619L47.154 5.28187H49.8743L52.2514 14.8819L51.5886 14.859L54.2857 5.28187H57.3257L60.0457 14.859L59.36 14.8819L61.7371 5.28187H64.48L61.1429 16.619H58.3086L55.4286 6.69901H56.1829L53.3257 16.619H50.4914ZM77.4191 16.8933C76.261 16.8933 75.2324 16.6876 74.3333 16.2762C73.4343 15.8647 72.7257 15.2781 72.2076 14.5162C71.7048 13.7542 71.4457 12.8476 71.4305 11.7962H74.3333C74.3486 12.3295 74.4781 12.8095 74.7219 13.2362C74.9657 13.6476 75.3086 13.9752 75.7505 14.219C76.2076 14.4628 76.7562 14.5847 77.3962 14.5847C77.96 14.5847 78.44 14.5009 78.8362 14.3333C79.2476 14.1504 79.56 13.899 79.7733 13.579C79.9867 13.2438 80.0933 12.8552 80.0933 12.4133C80.0933 11.8952 79.9714 11.4762 79.7276 11.1562C79.499 10.8209 79.1714 10.539 78.7448 10.3104C78.3333 10.0819 77.8533 9.88377 77.3048 9.71616C76.7714 9.54854 76.2076 9.35806 75.6133 9.14473C74.3791 8.7333 73.4419 8.19996 72.8019 7.54473C72.1619 6.87425 71.8419 5.98282 71.8419 4.87044C71.8419 3.94092 72.0629 3.14092 72.5048 2.47044C72.9619 1.79996 73.5867 1.28187 74.3791 0.916155C75.1867 0.535203 76.1162 0.344727 77.1676 0.344727C78.2343 0.344727 79.1638 0.535203 79.9562 0.916155C80.7486 1.29711 81.3733 1.83044 81.8305 2.51616C82.3029 3.18663 82.5467 3.99425 82.5619 4.93901H79.6362C79.6362 4.54282 79.5295 4.17711 79.3162 3.84187C79.1181 3.49139 78.8286 3.20949 78.4476 2.99616C78.0819 2.76758 77.64 2.6533 77.1219 2.6533C76.6648 2.63806 76.2533 2.71425 75.8876 2.88187C75.5219 3.03425 75.2324 3.26282 75.0191 3.56758C74.821 3.85711 74.7219 4.22282 74.7219 4.66473C74.7219 5.09139 74.821 5.44949 75.0191 5.73901C75.2171 6.0133 75.499 6.24949 75.8648 6.44758C76.2305 6.63044 76.6495 6.80568 77.1219 6.9733C77.6095 7.14092 78.1429 7.32377 78.7219 7.52187C79.5143 7.78092 80.2305 8.10092 80.8705 8.48187C81.5257 8.84758 82.0438 9.32758 82.4248 9.92187C82.8057 10.5162 82.9962 11.2857 82.9962 12.2304C82.9962 13.0533 82.7829 13.8228 82.3562 14.539C81.9295 15.24 81.3048 15.8114 80.4819 16.2533C79.6591 16.68 78.6381 16.8933 77.4191 16.8933ZM85.5276 21.6476V5.28187H87.9733L88.2705 6.95044C88.5143 6.6152 88.8114 6.2952 89.1619 5.99044C89.5124 5.68568 89.9314 5.44949 90.419 5.28187C90.9067 5.09901 91.4781 5.00758 92.1333 5.00758C93.2152 5.00758 94.1676 5.26663 94.9905 5.78473C95.8286 6.30282 96.4914 7.01139 96.979 7.91044C97.4667 8.80949 97.7105 9.83044 97.7105 10.9733C97.7105 12.1162 97.4667 13.1371 96.979 14.0362C96.4914 14.92 95.8286 15.6209 94.9905 16.139C94.1524 16.6419 93.1924 16.8933 92.1105 16.8933C91.2419 16.8933 90.48 16.7333 89.8248 16.4133C89.1848 16.0781 88.6667 15.6057 88.2705 14.9962V21.6476H85.5276ZM91.5619 14.5162C92.2172 14.5162 92.7962 14.3638 93.299 14.059C93.8171 13.7543 94.2133 13.3352 94.4876 12.8019C94.7771 12.2685 94.9219 11.6514 94.9219 10.9504C94.9219 10.2647 94.7771 9.6552 94.4876 9.12187C94.2133 8.5733 93.8171 8.14663 93.299 7.84187C92.7962 7.53711 92.2172 7.38473 91.5619 7.38473C90.9067 7.38473 90.3276 7.53711 89.8248 7.84187C89.3219 8.14663 88.9257 8.56568 88.6362 9.09901C88.3619 9.63235 88.2248 10.2495 88.2248 10.9504C88.2248 11.6514 88.3619 12.2685 88.6362 12.8019C88.9257 13.3352 89.3219 13.7543 89.8248 14.059C90.3276 14.3638 90.9067 14.5162 91.5619 14.5162ZM104.19 16.8933C103.23 16.8933 102.437 16.7409 101.812 16.4362C101.188 16.1162 100.723 15.6971 100.418 15.179C100.113 14.6457 99.961 14.0666 99.961 13.4419C99.961 12.7257 100.144 12.1085 100.51 11.5904C100.89 11.0571 101.447 10.6457 102.178 10.3562C102.91 10.0514 103.816 9.89901 104.898 9.89901H107.801C107.801 9.30473 107.71 8.81711 107.527 8.43616C107.359 8.03997 107.092 7.74282 106.727 7.54473C106.376 7.34663 105.934 7.24758 105.401 7.24758C104.776 7.24758 104.228 7.39996 103.755 7.70473C103.298 7.99425 103.024 8.42854 102.932 9.00758H100.235C100.311 8.18473 100.586 7.47615 101.058 6.88187C101.53 6.28758 102.148 5.83044 102.91 5.51044C103.671 5.1752 104.51 5.00758 105.424 5.00758C106.49 5.00758 107.405 5.19806 108.167 5.57901C108.944 5.94473 109.53 6.47044 109.927 7.15615C110.338 7.84187 110.544 8.67235 110.544 9.64758V16.619H108.212L107.938 14.7904C107.786 15.0952 107.588 15.3771 107.344 15.6362C107.115 15.88 106.849 16.1009 106.544 16.299C106.239 16.4819 105.889 16.6266 105.492 16.7333C105.111 16.84 104.677 16.8933 104.19 16.8933ZM104.807 14.7219C105.249 14.7219 105.645 14.6457 105.995 14.4933C106.346 14.3257 106.643 14.0971 106.887 13.8076C107.146 13.5181 107.344 13.1904 107.481 12.8247C107.618 12.459 107.702 12.0781 107.732 11.6819V11.659H105.195C104.647 11.659 104.197 11.7276 103.847 11.8647C103.496 12.0019 103.237 12.1923 103.07 12.4362C102.917 12.6647 102.841 12.9314 102.841 13.2362C102.841 13.5562 102.917 13.8304 103.07 14.059C103.237 14.2723 103.466 14.44 103.755 14.5619C104.045 14.6685 104.395 14.7219 104.807 14.7219ZM118.87 16.8933C117.728 16.8933 116.714 16.6419 115.83 16.139C114.947 15.6362 114.253 14.9428 113.75 14.059C113.248 13.16 112.996 12.1238 112.996 10.9504C112.996 9.77711 113.248 8.74854 113.75 7.86473C114.253 6.98092 114.947 6.28758 115.83 5.78473C116.714 5.26663 117.728 5.00758 118.87 5.00758C120.303 5.00758 121.507 5.38092 122.482 6.12758C123.457 6.87425 124.082 7.8952 124.356 9.19044H121.453C121.316 8.61139 121.011 8.16187 120.539 7.84187C120.067 7.52187 119.503 7.36187 118.848 7.36187C118.284 7.36187 117.773 7.49901 117.316 7.7733C116.859 8.04758 116.486 8.45901 116.196 9.00758C115.922 9.54092 115.785 10.1885 115.785 10.9504C115.785 11.5143 115.861 12.0247 116.013 12.4819C116.181 12.9238 116.402 13.3047 116.676 13.6247C116.966 13.9295 117.293 14.1657 117.659 14.3333C118.04 14.4857 118.436 14.5619 118.848 14.5619C119.29 14.5619 119.686 14.4933 120.036 14.3562C120.387 14.2038 120.684 13.9904 120.928 13.7162C121.187 13.4419 121.362 13.1066 121.453 12.7104H124.356C124.082 13.9752 123.457 14.9885 122.482 15.7504C121.507 16.5123 120.303 16.8933 118.87 16.8933ZM132.396 16.8933C131.253 16.8933 130.24 16.6495 129.356 16.1619C128.488 15.659 127.802 14.9733 127.299 14.1047C126.811 13.2209 126.568 12.1923 126.568 11.019C126.568 9.83044 126.811 8.78663 127.299 7.88758C127.787 6.98854 128.465 6.28758 129.333 5.78473C130.217 5.26663 131.238 5.00758 132.396 5.00758C133.524 5.00758 134.507 5.25901 135.345 5.76187C136.183 6.24949 136.838 6.90473 137.31 7.72758C137.783 8.55044 138.019 9.47996 138.019 10.5162C138.019 10.6685 138.011 10.8362 137.996 11.019C137.996 11.2019 137.989 11.4 137.973 11.6133H128.533V9.8533H135.253C135.208 9.04568 134.918 8.4133 134.385 7.95615C133.851 7.48377 133.189 7.24758 132.396 7.24758C131.832 7.24758 131.307 7.37711 130.819 7.63616C130.347 7.87997 129.966 8.2533 129.676 8.75615C129.402 9.24377 129.265 9.86854 129.265 10.6304V11.2933C129.265 11.9943 129.402 12.5962 129.676 13.099C129.95 13.5866 130.324 13.9676 130.796 14.2419C131.269 14.5009 131.794 14.6304 132.373 14.6304C132.998 14.6304 133.524 14.4933 133.95 14.219C134.377 13.9295 134.697 13.5485 134.91 13.0762H137.676C137.478 13.8076 137.128 14.4628 136.625 15.0419C136.137 15.6057 135.535 16.0552 134.819 16.3904C134.103 16.7257 133.295 16.8933 132.396 16.8933ZM145.123 16.8933C144.148 16.8933 143.279 16.7333 142.517 16.4133C141.755 16.0781 141.146 15.6209 140.689 15.0419C140.247 14.4628 139.98 13.7923 139.889 13.0304H142.631C142.723 13.3504 142.868 13.64 143.066 13.899C143.279 14.1581 143.553 14.3638 143.889 14.5162C144.239 14.6685 144.643 14.7447 145.1 14.7447C145.542 14.7447 145.908 14.6838 146.197 14.5619C146.487 14.4247 146.692 14.2571 146.814 14.059C146.951 13.8457 147.02 13.6247 147.02 13.3962C147.02 13.0304 146.921 12.7562 146.723 12.5733C146.54 12.3904 146.258 12.2457 145.877 12.139C145.496 12.0171 145.047 11.9028 144.529 11.7962C144.056 11.6895 143.569 11.56 143.066 11.4076C142.563 11.2552 142.106 11.0647 141.694 10.8362C141.283 10.5923 140.948 10.2876 140.689 9.92187C140.445 9.54092 140.323 9.08377 140.323 8.55044C140.323 7.87996 140.498 7.27806 140.849 6.74473C141.199 6.19616 141.71 5.76949 142.38 5.46473C143.05 5.15996 143.858 5.00758 144.803 5.00758C146.113 5.00758 147.165 5.31996 147.957 5.94473C148.765 6.55425 149.237 7.4152 149.374 8.52758H146.769C146.692 8.10092 146.479 7.76568 146.129 7.52187C145.793 7.27806 145.344 7.15615 144.78 7.15615C144.201 7.15615 143.759 7.27044 143.454 7.49901C143.15 7.71235 142.997 7.99425 142.997 8.34473C142.997 8.5733 143.096 8.77901 143.294 8.96187C143.508 9.14473 143.797 9.29711 144.163 9.41901C144.529 9.54092 144.955 9.66282 145.443 9.78473C146.235 9.95234 146.959 10.1504 147.614 10.379C148.27 10.6076 148.795 10.9352 149.191 11.3619C149.588 11.7885 149.786 12.4057 149.786 13.2133C149.801 13.9295 149.618 14.5695 149.237 15.1333C148.856 15.6819 148.315 16.1162 147.614 16.4362C146.913 16.7409 146.083 16.8933 145.123 16.8933Z"
    fill="#222222"
/>
</svg>